# xmcd
#
# Track frame offsets: 
#        150
#        10100
#        21563
#        31945
#        42763
#        53113
#        64430
#        76120
#        87713
#        98888
#        109238
#        120000
#        131043
#        144113
#        154738
#        166183
#
# Disc length: 2398 seconds
#
# Revision: 2
# Processed by: cddbd v1.4PL0 Copyright (c) Steve Scherf et al.
# Submitted via: ExactAudioCopy v0.90b3
#
DISCID=c7095c10
DTITLE=Patsy Cline - Walkin' After Midnight
DYEAR=1900
DGENRE=Country
TTITLE0=Turn The Cards Slowly
TTITLE1=The Heart You Break
TTITLE2=Three Cigarettes In An Ashtray
TTITLE3=I Cried All The Way  To The Altar
TTITLE4=Pick Me Up (On Your Way Down)
TTITLE5=Just Out Of Reach
TTITLE6=In Care Of The Blues
TTITLE7=I've Loved And Lost Again
TTITLE8=Hungry For Love
TTITLE9=I Love You Honey
TTITLE10=Stop Look And Listen
TTITLE11=Don't Ever Leave Me
TTITLE12=If I Could See The World
TTITLE13=Honky Tonk Merry-Go-Round
TTITLE14=Walkin' After Midnight
TTITLE15=A Church A Courtroom And Then Goodbye
EXTD=
EXTT0=
EXTT1=
EXTT2=
EXTT3=
EXTT4=
EXTT5=
EXTT6=
EXTT7=
EXTT8=
EXTT9=
EXTT10=
EXTT11=
EXTT12=
EXTT13=
EXTT14=
EXTT15=
PLAYORDER=
